<svg xmlns="http://www.w3.org/2000/svg" xmlns:xlink="http://www.w3.org/1999/xlink" width="48" height="48" viewBox="0 0 48 48"><g id="surface225216"><path style="stroke:none;fill-rule:nonzero;fill:#5f6368;fill-opacity:1" d="M 24 4 C 12.976562 4 4 12.976562 4 24 C 4 35.023438 12.976562 44 24 44 C 35.023438 44 44 35.023438 44 24 C 44 12.976562 35.023438 4 24 4 Z M 24 8 C 32.859375 8 40 15.140625 40 24 C 40 32.859375 32.859375 40 24 40 C 15.140625 40 8 32.859375 8 24 C 8 15.140625 15.140625 8 24 8 Z M 22 14 L 22 18 L 26 18 L 26 14 Z M 22 22 L 22 34 L 26 34 L 26 22 Z M 22 22"/></g></svg>